<?xml version="1.0" encoding="UTF-8"?> <!-- Creator: CorelDRAW X7 --> <svg xmlns="http://www.w3.org/2000/svg" xmlns:xlink="http://www.w3.org/1999/xlink" xml:space="preserve" width="131.416mm" height="196.418mm" style="shape-rendering:geometricPrecision; text-rendering:geometricPrecision; image-rendering:optimizeQuality; fill-rule:evenodd; clip-rule:evenodd" viewBox="0 0 13142 19642"> <defs> <style type="text/css"> <![CDATA[ .fil0 {fill:#FEFEFE} .fil4 {fill:#FEFEFE} .fil2 {fill:#3B598D} .fil3 {fill:#FEFEFE;fill-rule:nonzero} .fil1 {fill:#3F629B;fill-rule:nonzero} ]]> </style> </defs> <g id="Capa_x0020_1"> <metadata id="CorelCorpID_0Corel-Layer"></metadata> <g id="_1128878096"> <g> <path class="fil0" d="M6571 71c3590,0 6500,4365 6500,9750 0,5385 -2910,9750 -6500,9750 -3590,0 -6500,-4365 -6500,-9750 0,-5385 2910,-9750 6500,-9750z"></path> <path id="1" class="fil1" d="M13142 9821l-142 0 0 0 -8 -499 -25 -493 -41 -486 -57 -478 -73 -469 -87 -460 -101 -451 -116 -440 -130 -429 -142 -418 -156 -406 -168 -393 -180 -380 -191 -366 -203 -351 -214 -336 -224 -320 -234 -304 -243 -287 -252 -269 -261 -251 -270 -232 -277 -213 -284 -193 -291 -172 -298 -152 -304 -129 -310 -107 -315 -85 -320 -61 -325 -37 -329 -12 0 -142 340 13 335 38 330 63 326 87 319 111 313 133 306 155 299 177 291 198 284 218 275 237 266 256 258 275 247 292 238 309 228 325 217 341 206 357 194 371 182 384 170 399 158 410 144 423 131 434 117 446 103 455 88 465 73 474 57 483 42 490 25 498 9 504 0 0zm-6571 9821l0 -142 0 0 329 -12 325 -37 320 -61 315 -85 310 -107 304 -130 298 -151 291 -172 284 -193 277 -213 270 -232 261 -251 252 -269 243 -287 234 -304 224 -320 214 -336 203 -351 191 -366 180 -380 168 -393 156 -406 142 -418 130 -429 116 -441 101 -450 87 -460 73 -470 57 -477 41 -486 25 -493 8 -499 142 0 -9 504 -25 498 -42 490 -57 482 -73 475 -88 465 -103 455 -117 445 -131 435 -144 422 -158 411 -170 398 -182 385 -194 371 -206 356 -217 342 -228 325 -238 309 -247 292 -258 275 -266 256 -275 237 -284 218 -291 198 -299 176 -306 156 -313 133 -319 111 -326 87 -330 63 -335 38 -340 13 0 0zm-6571 -9821l142 0 0 0 8 499 25 493 41 486 57 477 72 470 87 460 102 450 116 441 129 429 143 418 155 406 168 393 180 380 192 366 203 351 213 336 224 320 234 304 244 287 252 269 261 251 269 232 277 213 285 193 291 172 298 151 304 130 310 107 315 85 320 61 325 37 329 12 0 142 -340 -13 -335 -38 -331 -63 -325 -87 -319 -111 -313 -133 -306 -156 -299 -176 -292 -198 -283 -218 -275 -237 -267 -256 -257 -275 -248 -292 -238 -309 -227 -325 -217 -342 -206 -356 -194 -371 -183 -385 -170 -398 -157 -411 -145 -422 -131 -435 -117 -445 -102 -455 -88 -465 -73 -475 -58 -482 -41 -490 -25 -498 -9 -504 0 0zm6571 -9821l0 142 0 0 -329 12 -325 37 -320 61 -315 85 -310 107 -304 129 -298 152 -291 172 -285 193 -277 213 -269 232 -261 251 -252 269 -244 287 -234 304 -224 320 -213 336 -203 351 -192 366 -180 380 -168 393 -155 406 -143 418 -129 429 -116 440 -102 451 -87 460 -72 469 -57 478 -41 486 -25 493 -8 499 -142 0 9 -504 25 -498 41 -490 58 -483 73 -474 88 -465 102 -455 117 -446 131 -434 145 -423 157 -410 170 -399 183 -384 194 -371 206 -357 217 -341 227 -325 238 -309 248 -292 257 -275 267 -256 275 -237 283 -218 292 -198 299 -177 306 -155 313 -133 319 -111 325 -87 331 -63 335 -38 340 -13 0 0z"></path> </g> <ellipse class="fil2" cx="6571" cy="9821" rx="6036" ry="9054"></ellipse> <path class="fil3" d="M1642 10344c88,-9 158,11 211,59 52,49 84,125 95,229 11,104 -5,185 -46,243 -41,58 -105,92 -193,101l-453 48 -20 -184 444 -47c49,-5 85,-19 106,-42 22,-24 31,-58 26,-105 -5,-46 -20,-78 -45,-97 -26,-18 -64,-25 -115,-20l-443 47 -20 -184 453 -48z"></path> <polygon id="1" class="fil3" points="1849,9495 1859,9672 1385,10000 1874,9974 1883,10143 1170,10180 1159,9960 1554,9679 1145,9700 1136,9532 "></polygon> <polygon id="2" class="fil3" points="1872,8931 1857,9349 1731,9345 1735,9228 1274,9212 1270,9329 1144,9324 1158,8907 1285,8911 1280,9028 1741,9044 1745,8927 "></polygon> <polygon id="3" class="fil3" points="1214,8070 1903,8391 1885,8597 1150,8794 1167,8602 1682,8473 1197,8257 "></polygon> <polygon id="4" class="fil3" points="2009,7521 1928,8031 1223,7919 1304,7409 1440,7431 1388,7760 1509,7779 1558,7474 1694,7495 1646,7801 1820,7828 1872,7499 "></polygon> <path id="5" class="fil3" d="M1623 6869c-18,-4 -34,-4 -48,1 -14,4 -26,15 -37,31 -8,11 -14,24 -18,40 -5,16 -9,35 -14,57l-14 65 188 40 12 -55c6,-29 10,-53 11,-74 2,-20 -1,-37 -9,-52 -7,-15 -15,-26 -26,-35 -10,-8 -26,-14 -45,-18zm544 -178l-46 220 -297 136 -18 83 256 54 -38 180 -699 -149 65 -302c8,-42 18,-76 29,-105 11,-29 27,-55 49,-77 21,-23 46,-40 74,-50 28,-10 61,-11 98,-3 52,11 91,31 119,62 27,31 47,71 59,120l349 -169z"></path> <path id="6" class="fil3" d="M2119 6008c68,18 116,61 143,130 27,69 27,153 1,252 -16,57 -34,106 -55,145 -22,40 -45,76 -71,109l-165 -44 5 -19c39,-29 73,-64 101,-106 28,-41 47,-83 59,-125 3,-10 6,-25 8,-43 3,-18 4,-33 3,-45 -2,-15 -6,-29 -12,-40 -6,-11 -17,-18 -34,-23 -15,-4 -30,-1 -44,9 -14,10 -28,26 -40,50 -13,24 -26,50 -40,77 -13,28 -27,53 -42,76 -34,53 -71,88 -110,104 -39,17 -83,19 -131,7 -64,-18 -109,-61 -134,-129 -25,-68 -25,-148 -1,-238 12,-46 28,-89 49,-131 21,-42 42,-78 64,-107l159 43 -5 19c-30,22 -58,51 -83,87 -26,36 -45,76 -56,118 -4,14 -7,29 -9,45 -2,15 -2,30 0,45 2,13 6,25 13,37 7,11 17,18 29,21 18,5 34,2 47,-9 14,-12 30,-36 48,-72 12,-24 24,-47 35,-69 11,-22 25,-45 40,-70 32,-48 66,-80 102,-98 37,-17 79,-19 126,-6z"></path> <polygon id="7" class="fil3" points="2517,5576 2381,5972 2261,5931 2299,5820 1863,5670 1825,5781 1706,5739 1842,5344 1962,5385 1923,5496 2359,5646 2397,5535 "></polygon> <path id="8" class="fil3" d="M2511 4682c60,27 109,65 144,114 36,49 57,101 64,155 5,40 3,81 -6,122 -9,42 -26,88 -49,140l-102 230 -653 -290 106 -237c23,-53 48,-97 74,-131 26,-35 54,-62 82,-81 47,-32 100,-51 158,-57 58,-5 119,7 182,35zm-79 173c-43,-19 -83,-27 -121,-25 -37,2 -72,16 -104,42 -16,13 -30,29 -41,45 -11,17 -25,43 -41,79l-19 43 408 182 19 -43c18,-40 29,-70 34,-90 5,-21 6,-42 5,-64 -4,-38 -18,-71 -41,-99 -23,-27 -56,-51 -99,-70z"></path> <path id="9" class="fil3" d="M3235 4119l-96 165 -150 -29 -132 229 100 115 -92 161 -487 -586 106 -184 751 129zm-381 109l-266 -52 178 204 88 -152z"></path> <path id="10" class="fil3" d="M3386 3279c54,38 95,85 120,140 26,55 37,110 33,164 -2,41 -12,80 -29,119 -17,39 -42,82 -75,128l-144 207 -586 -410 149 -212c34,-48 66,-86 98,-115 33,-29 65,-50 96,-64 53,-23 108,-31 166,-25 58,6 115,29 172,68zm-111 155c-38,-26 -76,-42 -113,-48 -37,-5 -74,2 -111,22 -18,10 -35,22 -49,36 -14,15 -32,38 -55,70l-26 39 366 256 26 -38c26,-36 42,-64 51,-83 8,-19 14,-39 16,-61 4,-39 -3,-74 -20,-105 -18,-31 -46,-60 -85,-88z"></path> <polygon id="11" class="fil3" points="4487,2702 4353,2818 3803,2647 4124,3017 3997,3128 3529,2589 3695,2445 4159,2583 3891,2274 4018,2163 "></polygon> <path id="12" class="fil3" d="M5201 2254l-167 92 -113 -102 -231 128 26 150 -162 90 -115 -752 185 -103 577 497zm-382 -103l-201 -182 47 267 154 -85z"></path> <path id="13" class="fil3" d="M5603 2116c-50,18 -99,27 -147,28 -47,0 -92,-8 -133,-26 -40,-19 -77,-46 -110,-84 -32,-37 -59,-85 -80,-142 -19,-53 -29,-104 -29,-153 0,-49 10,-95 29,-137 19,-41 46,-77 84,-108 37,-33 81,-58 132,-76 28,-11 55,-18 78,-23 24,-5 47,-9 68,-11 22,-2 43,-2 62,-1 19,1 35,3 50,4l59 163 -20 7c-11,-4 -25,-9 -41,-14 -16,-5 -34,-10 -54,-13 -20,-4 -41,-6 -63,-5 -21,0 -43,4 -65,12 -25,9 -46,22 -65,37 -20,16 -35,36 -47,60 -12,24 -18,52 -19,84 0,33 7,69 21,109 16,42 34,75 57,99 22,24 45,41 69,51 24,9 49,14 74,13 25,-1 49,-6 71,-14 21,-8 40,-18 59,-32 18,-14 34,-30 47,-47 12,-14 22,-28 31,-43 9,-14 16,-27 22,-37l18 -6 58 160c-14,14 -27,27 -40,39 -13,12 -27,24 -42,35 -20,14 -39,26 -57,37 -18,10 -44,21 -77,34z"></path> <polygon id="14" class="fil3" points="6356,1967 5939,2003 5928,1877 6045,1867 6005,1408 5888,1418 5877,1292 6294,1255 6305,1381 6188,1391 6228,1851 6345,1841 "></polygon> <path id="15" class="fil3" d="M7231 1672c-10,114 -50,201 -121,262 -71,61 -164,86 -279,76 -114,-10 -201,-51 -260,-123 -59,-73 -84,-166 -74,-279 10,-114 51,-202 122,-263 70,-60 163,-86 277,-76 114,10 201,51 261,123 59,72 84,166 74,280zm-259 159c20,-20 35,-45 46,-73 11,-29 19,-63 22,-103 4,-43 2,-80 -5,-110 -7,-31 -18,-57 -32,-76 -15,-21 -32,-36 -53,-47 -20,-10 -42,-17 -65,-19 -23,-2 -45,1 -67,7 -21,7 -41,19 -60,36 -18,17 -33,40 -45,71 -13,30 -21,66 -25,108 -4,42 -2,79 5,109 7,31 18,56 32,76 14,21 32,36 52,47 21,11 43,17 67,19 23,2 46,0 68,-8 22,-7 42,-19 60,-37z"></path> <polygon id="16" class="fil3" points="7929,2355 7765,2288 7667,1720 7484,2175 7327,2111 7595,1449 7799,1531 7887,2008 8040,1629 8197,1692 "></polygon> <path id="17" class="fil3" d="M8615 2853l-152 -114 48 -145 -212 -159 -126 85 -148 -112 640 -411 169 127 -219 729zm-61 -391l84 -257 -224 152 140 105z"></path> <polygon id="18" class="fil3" points="9058,3294 8687,2937 9183,2423 9316,2551 8915,2965 9153,3195 "></polygon> <path id="19" class="fil3" d="M10018 3981c-54,39 -111,62 -172,68 -60,7 -115,-1 -165,-21 -38,-16 -72,-39 -104,-67 -31,-29 -63,-66 -97,-112l-148 -204 578 -420 153 209c34,47 60,91 77,131 16,40 26,76 29,110 4,58 -6,113 -30,166 -25,53 -65,100 -121,140zm-111 -155c38,-27 65,-58 82,-91 17,-34 23,-71 16,-112 -4,-21 -10,-40 -19,-58 -8,-18 -24,-43 -48,-75l-27 -38 -362 263 27 38c26,35 47,60 62,74 15,14 33,26 53,36 35,16 70,21 106,14 35,-6 72,-23 110,-51z"></path> <polygon id="20" class="fil3" points="10035,4770 9785,4319 10409,3973 10660,4424 10539,4491 10377,4200 10270,4260 10420,4530 10299,4597 10149,4327 9994,4412 10156,4703 "></polygon> <path id="21" class="fil3" d="M10479 5830l-71 -177 115 -99 -99 -246 -152 8 -70 -172 761 -23 80 197 -564 512zm149 -367l205 -177 -271 14 66 163z"></path> <path id="22" class="fil3" d="M10888 6419c-68,21 -131,9 -191,-35 -59,-44 -104,-116 -134,-213 -17,-57 -27,-108 -30,-153 -3,-45 -2,-88 2,-129l164 -51 5 20c-18,45 -27,93 -29,142 -2,50 3,96 16,138 3,10 9,24 16,41 7,17 14,30 22,40 10,12 20,21 31,27 11,6 24,7 41,2 14,-5 25,-15 33,-31 6,-16 9,-37 7,-64 -1,-27 -4,-56 -7,-86 -4,-31 -5,-59 -4,-87 1,-63 13,-112 38,-147 24,-35 60,-60 107,-75 64,-19 124,-6 182,38 57,45 100,112 127,202 14,45 24,91 28,137 5,47 6,88 2,124l-157 48 -6 -19c14,-34 22,-73 25,-118 2,-44 -3,-87 -16,-129 -4,-14 -10,-29 -16,-43 -6,-14 -15,-26 -24,-38 -8,-11 -18,-19 -30,-24 -12,-6 -24,-7 -36,-4 -18,6 -30,17 -35,34 -6,17 -7,45 -3,86 3,27 5,52 7,77 2,24 3,51 3,80 -2,58 -13,104 -35,138 -22,34 -56,58 -103,72z"></path> <path id="23" class="fil3" d="M11089 7159c-86,20 -158,9 -216,-33 -57,-41 -98,-113 -122,-215 -23,-102 -18,-184 16,-247 33,-63 93,-104 179,-124l444 -103 42 181 -434 100c-49,11 -82,30 -101,55 -19,26 -24,62 -13,107 10,45 29,75 57,91 27,15 66,17 116,6l435 -101 41 181 -444 102z"></path> <polygon id="24" class="fil3" points="10971,8027 10943,7852 11380,7475 10896,7552 10869,7385 11575,7274 11609,7491 11246,7812 11650,7748 11676,7915 "></polygon> <path id="25" class="fil3" d="M10992 8535c-5,-53 -1,-103 10,-149 12,-46 32,-87 60,-121 28,-35 65,-64 109,-85 45,-22 98,-36 158,-41 56,-5 108,-1 156,12 47,13 89,34 124,63 34,28 62,65 83,109 22,44 35,93 39,147 3,30 4,57 2,82 -1,24 -3,47 -7,68 -4,22 -9,41 -15,59 -6,19 -12,34 -17,48l-173 15 -1 -21c7,-10 15,-22 24,-36 9,-15 18,-31 27,-49 9,-18 15,-38 21,-59 5,-21 7,-43 5,-66 -3,-26 -9,-50 -19,-73 -10,-22 -26,-43 -46,-61 -20,-17 -45,-30 -76,-39 -31,-9 -68,-12 -111,-8 -44,4 -81,13 -110,28 -29,16 -51,34 -67,54 -15,21 -26,44 -31,68 -6,25 -7,49 -5,72 2,23 7,44 16,66 8,21 19,40 32,58 11,14 22,28 33,41 12,12 22,22 30,30l2 19 -170 15c-9,-17 -18,-33 -27,-49 -8,-16 -16,-32 -23,-50 -8,-22 -15,-44 -20,-64 -6,-20 -10,-48 -13,-83z"></path> <polygon id="26" class="fil3" points="11039,9305 11024,8887 11151,8883 11155,9000 11616,8984 11612,8867 11738,8863 11753,9281 11626,9285 11622,9168 11161,9184 11166,9301 "></polygon> <path id="27" class="fil3" d="M11367 10157c-114,-4 -203,-40 -267,-107 -65,-68 -95,-159 -92,-274 5,-115 41,-204 110,-267 70,-62 161,-92 275,-88 115,4 204,40 268,107 65,68 95,159 91,274 -4,114 -40,203 -109,266 -69,63 -161,93 -276,89zm-172 -250c21,18 46,32 76,42 29,10 63,15 103,17 43,1 80,-3 110,-11 31,-9 55,-21 74,-37 20,-15 35,-34 44,-54 9,-21 14,-44 15,-66 1,-24 -2,-46 -10,-67 -7,-21 -21,-40 -39,-58 -17,-17 -42,-31 -73,-42 -31,-11 -67,-17 -109,-19 -42,-1 -79,2 -109,11 -30,9 -55,21 -74,36 -20,16 -34,34 -44,55 -10,21 -15,43 -16,67 -1,24 3,46 12,68 8,22 21,41 40,58zm805 73l-10 0 -173 -175 4 -118 185 125 -6 168z"></path> <polygon id="28" class="fil3" points="10931,10931 10950,10755 11469,10504 10981,10453 10999,10285 11709,10360 11686,10579 11252,10795 11659,10838 11641,11006 "></polygon> <polygon class="fil3" points="3443,6962 2883,6790 3000,6406 3095,6435 3012,6706 3145,6747 3216,6513 3311,6542 3240,6776 3478,6849 "></polygon> <path id="1" class="fil3" d="M3763 6028l-45 121 -143 0 -84 218 107 93 -45 117 -465 -423 45 -116 630 -10zm-294 121l-232 -3 175 152 57 -149z"></path> <path id="2" class="fil3" d="M3756 5544l83 -87c50,43 80,91 90,141 10,50 1,104 -27,160 -34,70 -86,116 -155,138 -70,21 -146,12 -229,-28 -88,-43 -145,-99 -171,-168 -27,-69 -22,-140 14,-214 32,-64 76,-107 134,-129 34,-13 75,-15 123,-6l-26 117c-31,-7 -58,-5 -84,7 -25,12 -45,33 -59,61 -19,39 -20,77 -4,115 16,38 56,73 118,103 67,33 120,44 160,34 40,-10 69,-35 88,-73 14,-28 17,-57 9,-86 -8,-29 -29,-58 -64,-85z"></path> <path id="3" class="fil3" d="M3554 5111l66 -98 263 178c42,28 70,45 84,51 23,9 45,10 68,2 23,-7 43,-25 62,-52 19,-28 27,-53 25,-75 -2,-22 -10,-40 -25,-54 -14,-14 -41,-34 -79,-59l-269 -182 66 -98 255 172c59,40 98,70 119,92 20,21 34,45 41,70 7,25 7,53 1,84 -6,30 -22,65 -48,103 -32,47 -61,78 -88,95 -27,17 -53,26 -80,29 -26,2 -50,-1 -72,-9 -32,-12 -76,-37 -130,-74l-259 -175z"></path> <polygon id="4" class="fil3" points="4359,4940 3908,4574 3982,4482 4357,4786 4542,4557 4619,4619 "></polygon> <polygon id="5" class="fil3" points="4726,4496 4370,4164 4251,4291 4179,4224 4497,3883 4569,3951 4451,4078 4807,4410 "></polygon> <path id="6" class="fil3" d="M5331 3931l-97 85 -126 -67 -176 154 50 132 -94 82 -212 -592 94 -82 561 288zm-316 -32l-204 -111 83 216 121 -105z"></path> <path id="7" class="fil3" d="M5126 3375l193 -99c44,-22 78,-35 105,-40 35,-7 69,-4 103,8 34,12 65,31 93,59 28,28 55,66 80,115 22,43 35,82 41,119 6,45 3,85 -9,121 -10,27 -27,53 -53,79 -20,20 -49,39 -88,59l-198 101 -267 -522zm151 34l176 346 79 -40c29,-15 50,-27 61,-37 15,-13 26,-28 32,-44 6,-16 6,-37 2,-64 -5,-27 -18,-61 -38,-101 -21,-41 -40,-70 -58,-88 -19,-18 -37,-30 -56,-35 -19,-6 -40,-6 -62,0 -16,4 -46,17 -89,39l-47 24z"></path> <path id="8" class="fil3" d="M6144 3567l-51 -584 190 -17c71,-6 118,-7 140,-3 35,5 64,22 90,49 25,28 39,65 43,111 4,36 0,67 -11,92 -11,26 -26,46 -45,62 -19,16 -38,27 -59,33 -27,8 -68,15 -121,19l-77 7 19 220 -118 11zm76 -496l14 166 65 -6c46,-4 77,-10 92,-17 15,-8 27,-18 35,-32 7,-14 11,-29 9,-47 -2,-21 -10,-38 -23,-51 -14,-12 -31,-19 -50,-21 -14,-2 -43,-1 -85,3l-57 5z"></path> <path id="9" class="fil3" d="M6721 3221c12,-59 30,-106 55,-143 19,-26 42,-49 69,-68 27,-19 55,-31 85,-37 38,-9 81,-8 128,1 85,16 147,56 188,118 41,63 52,141 34,234 -18,93 -58,161 -118,204 -61,42 -134,55 -218,39 -86,-17 -149,-56 -189,-118 -40,-62 -51,-139 -34,-230zm121 19c-13,65 -7,118 16,157 24,39 59,64 105,73 46,9 87,-1 124,-28 36,-28 60,-75 73,-142 13,-66 8,-118 -14,-155 -23,-39 -58,-62 -106,-72 -48,-9 -90,0 -125,27 -36,27 -60,74 -73,140z"></path> <polygon id="10" class="fil3" points="7316,3649 7580,3131 7685,3185 7466,3615 7729,3749 7684,3837 "></polygon> <polygon id="11" class="fil3" points="7750,3889 8069,3398 8168,3462 7849,3953 "></polygon> <polygon id="12" class="fil3" points="8045,4096 8358,3723 8224,3611 8288,3535 8645,3835 8581,3911 8448,3799 8135,4172 "></polygon> <path id="13" class="fil3" d="M8325 4343l421 -407 302 313 -71 69 -220 -228 -93 91 204 211 -71 69 -204 -212 -115 111 227 235 -71 69 -309 -321zm550 -322l125 -43 87 90 -162 4 -50 -51z"></path> <path id="14" class="fil3" d="M9079 4927l38 114c-62,23 -117,28 -167,13 -49,-15 -92,-48 -129,-99 -46,-63 -62,-130 -48,-202 13,-72 58,-135 132,-189 79,-57 155,-81 228,-72 74,9 135,46 183,113 42,58 59,117 51,178 -5,37 -22,74 -52,112l-91 -78c20,-23 31,-49 32,-77 1,-28 -7,-55 -26,-81 -25,-35 -58,-54 -100,-58 -41,-3 -90,15 -146,56 -60,44 -95,86 -105,126 -9,40 -2,77 23,112 19,25 43,41 72,48 30,6 65,1 105,-16z"></path> <polygon id="15" class="fil3" points="9018,5237 9521,4935 9580,5034 9368,5441 9704,5240 9760,5334 9258,5636 9197,5534 9402,5135 9075,5331 "></polygon> <polygon id="16" class="fil3" points="9300,5751 9826,5494 9878,5601 9352,5858 "></polygon> <path id="17" class="fil3" d="M9735 6228l9 120c-66,8 -121,-2 -165,-28 -44,-26 -78,-69 -102,-127 -29,-72 -28,-141 2,-208 31,-66 89,-117 174,-151 91,-37 170,-42 239,-15 69,26 119,78 150,154 27,66 29,128 6,185 -13,35 -39,67 -77,96l-70 -98c25,-17 42,-40 50,-67 8,-27 7,-55 -5,-84 -16,-40 -44,-67 -83,-81 -39,-13 -91,-7 -156,20 -69,27 -113,59 -132,96 -19,36 -20,75 -5,114 12,29 32,50 59,64 27,14 62,17 106,10z"></path> <path id="18" class="fil3" d="M9767 7017l-38 -123 112 -88 -68 -224 -142 -8 -36 -120 627 47 37 120 -492 396zm158 -276l184 -141 -231 -12 47 153z"></path> <path class="fil3" d="M5911 16446l-413 0 0 -108 131 0 0 -327 -131 0 0 -102c20,0 39,-1 58,-3 18,-2 33,-6 45,-12 15,-7 26,-16 33,-27 7,-11 11,-25 12,-42l138 0 0 513 127 0 0 108z"></path> <path id="1" class="fil3" d="M6543 16102c0,52 -6,100 -20,145 -13,44 -33,82 -60,113 -30,33 -66,58 -110,74 -43,17 -94,25 -152,25 -20,0 -42,-1 -66,-4 -24,-2 -40,-5 -47,-7l0 -121 16 0c9,4 21,8 36,12 15,4 36,7 63,7 21,0 43,-3 63,-9 21,-5 39,-14 54,-25 16,-13 30,-28 40,-47 11,-19 18,-42 22,-68 -25,14 -47,25 -68,32 -20,7 -46,11 -77,11 -23,0 -45,-3 -66,-9 -22,-5 -41,-14 -59,-26 -23,-16 -41,-38 -55,-65 -14,-27 -20,-60 -20,-101 0,-66 23,-120 69,-162 46,-42 107,-63 181,-63 39,0 73,5 103,15 30,11 56,26 77,47 25,24 44,54 57,91 13,37 19,82 19,135zm-159 -23c0,-34 -3,-62 -10,-84 -6,-22 -15,-38 -26,-50 -9,-9 -18,-16 -28,-19 -11,-4 -22,-6 -34,-6 -10,0 -21,2 -31,5 -10,4 -19,10 -28,20 -9,8 -16,20 -21,35 -6,14 -8,31 -8,51 0,20 3,36 8,49 6,13 14,24 25,31 9,8 21,13 34,16 13,3 27,5 43,5 12,0 26,-2 41,-5 14,-3 26,-6 34,-10 0,-3 0,-7 1,-13 0,-6 0,-14 0,-25z"></path> <polygon id="2" class="fil3" points="7149,15950 6869,16446 6691,16446 6981,15945 6664,15945 6664,15827 7149,15827 "></polygon> <path id="3" class="fil3" d="M7755 16102c0,52 -7,100 -20,145 -14,44 -34,82 -61,113 -29,33 -66,58 -109,74 -44,17 -95,25 -153,25 -20,0 -42,-1 -66,-4 -24,-2 -40,-5 -47,-7l0 -121 16 0c9,4 21,8 36,12 15,4 36,7 63,7 22,0 43,-3 64,-9 20,-5 38,-14 53,-25 17,-13 30,-28 41,-47 10,-19 17,-42 21,-68 -24,14 -47,25 -67,32 -21,7 -47,11 -78,11 -23,0 -45,-3 -66,-9 -22,-5 -41,-14 -58,-26 -24,-16 -42,-38 -56,-65 -13,-27 -20,-60 -20,-101 0,-66 23,-120 69,-162 46,-42 107,-63 182,-63 38,0 72,5 102,15 30,11 56,26 77,47 26,24 45,54 57,91 13,37 20,82 20,135zm-160 -23c0,-34 -3,-62 -10,-84 -6,-22 -15,-38 -26,-50 -8,-9 -18,-16 -28,-19 -11,-4 -22,-6 -34,-6 -10,0 -21,2 -31,5 -9,4 -19,10 -28,20 -9,8 -16,20 -21,35 -6,14 -8,31 -8,51 0,20 3,36 9,49 5,13 13,24 24,31 9,8 21,13 34,16 13,3 28,5 43,5 13,0 26,-2 41,-5 15,-3 26,-6 34,-10 0,-3 0,-7 1,-13 0,-6 0,-14 0,-25z"></path> <path class="fil3" d="M2348 13966c-13,-44 -18,-87 -16,-128 3,-41 13,-79 31,-113 18,-35 44,-65 79,-91 34,-26 77,-46 128,-61 47,-13 92,-18 134,-15 43,3 82,14 117,33 34,18 64,45 89,79 25,34 45,74 58,119 7,25 12,48 15,69 3,21 5,41 5,59 0,19 -1,37 -3,53 -2,17 -4,31 -7,44l-144 41 -5 -18c4,-9 9,-20 14,-34 6,-14 11,-29 15,-46 4,-17 7,-35 8,-54 1,-19 -1,-38 -7,-57 -6,-22 -16,-41 -28,-59 -12,-18 -29,-32 -49,-44 -20,-12 -44,-19 -71,-21 -28,-3 -60,1 -96,11 -37,11 -67,25 -89,43 -22,18 -38,36 -47,57 -11,20 -16,41 -16,63 -1,22 2,43 7,62 6,19 14,36 25,53 10,17 23,31 37,44 11,11 22,21 34,30 12,8 23,15 31,21l4 16 -142 40c-11,-13 -21,-25 -31,-37 -9,-12 -19,-25 -27,-39 -11,-17 -21,-34 -29,-51 -7,-16 -16,-39 -24,-69zm611 773c-92,35 -175,37 -250,5 -74,-32 -129,-95 -165,-188 -36,-93 -37,-176 -3,-250 34,-73 97,-128 189,-163 93,-36 177,-38 251,-6 74,33 129,95 165,188 35,93 36,176 3,250 -34,74 -97,128 -190,164zm-222 -141c23,7 48,10 74,8 27,-2 57,-10 89,-22 35,-13 63,-29 84,-46 21,-17 37,-36 47,-54 10,-19 16,-39 16,-59 0,-20 -3,-39 -10,-58 -7,-19 -17,-35 -31,-49 -13,-14 -30,-25 -51,-33 -19,-8 -43,-11 -72,-9 -28,2 -60,9 -93,22 -35,13 -63,28 -84,45 -21,18 -37,36 -47,54 -10,19 -16,39 -16,59 -1,20 2,40 10,59 7,19 18,36 32,50 14,15 31,26 52,33zm214 875l-62 -140 281 -413 -388 173 -60 -134 566 -252 78 175 -233 350 324 -144 60 134 -566 251zm499 469c-53,31 -109,33 -168,7 -59,-25 -110,-76 -155,-153 -25,-44 -44,-85 -55,-123 -11,-37 -19,-74 -24,-110l129 -74 8 15c-6,42 -5,84 3,126 8,43 22,80 41,113 5,8 12,19 21,32 9,13 18,22 26,29 11,8 21,14 32,17 10,3 22,1 35,-7 11,-6 19,-17 21,-32 3,-15 1,-33 -5,-55 -7,-23 -15,-47 -24,-72 -8,-25 -15,-49 -20,-72 -12,-54 -10,-98 3,-132 14,-34 39,-62 77,-84 49,-28 103,-30 161,-3 57,26 106,75 146,145 21,35 37,72 51,111 13,38 21,73 25,104l-123 71 -8 -15c4,-31 3,-66 -3,-104 -7,-38 -19,-73 -38,-106 -7,-11 -14,-22 -22,-33 -8,-10 -17,-19 -28,-28 -9,-7 -19,-12 -30,-14 -11,-3 -22,-1 -31,4 -14,8 -22,20 -23,35 -1,15 3,40 14,73 8,22 15,43 21,64 7,20 13,43 18,67 11,49 10,90 -2,123 -12,33 -36,60 -73,81zm572 317l-109 -160 -413 279 -90 -133 414 -279 -108 -160 99 -68 306 454 -99 67zm198 338c12,-10 20,-21 24,-33 5,-12 5,-26 -1,-42 -3,-10 -9,-22 -17,-33 -9,-12 -19,-25 -31,-39l-37 -44 -126 106 31 38c16,19 30,34 43,45 13,12 26,19 41,22 13,3 25,3 37,1 11,-3 23,-10 36,-21zm-168 468l-126 -150 66 -275 -46 -55 -175 146 -102 -123 474 -398 172 205c23,28 42,54 56,76 13,23 22,48 26,74 5,27 3,53 -5,77 -8,25 -25,48 -50,70 -35,29 -71,45 -106,47 -36,2 -74,-5 -114,-23l-70 329zm604 255c-53,55 -110,81 -172,78 -62,-3 -125,-36 -190,-99 -66,-63 -101,-125 -106,-186 -5,-62 19,-120 72,-175l275 -284 115 111 -268 278c-30,31 -46,60 -48,87 -1,28 13,56 42,84 28,28 56,41 84,39 27,-2 56,-19 87,-51l268 -277 116 111 -275 284zm769 49l-405 180 -138 197 -131 -92 133 -190 33 -450 148 104 -27 272 242 -122 145 101zm169 739l-412 -175 242 -570 412 175 -47 110 -265 -112 -41 98 246 104 -47 111 -246 -105 -60 141 265 112 -47 111zm682 174l-150 -32 -169 -470 -88 416 -143 -31 128 -605 187 39 147 394 74 -347 143 31 -129 605zm729 -321c2,58 -9,110 -34,157 -24,46 -56,82 -96,108 -29,19 -62,33 -98,42 -36,8 -78,13 -127,15l-219 8 -21 -619 224 -8c51,-2 94,1 131,8 37,7 68,18 94,33 43,24 78,58 104,102 26,43 40,95 42,154zm-166 5c-1,-41 -10,-75 -25,-104 -16,-28 -40,-50 -73,-65 -16,-7 -33,-12 -50,-15 -17,-2 -43,-2 -77,-1l-40 1 13 387 41 -2c37,-1 65,-4 82,-8 18,-4 35,-11 51,-21 29,-17 49,-40 62,-68 12,-29 18,-63 16,-104zm798 -173c26,95 19,178 -21,249 -40,70 -108,119 -204,145 -96,25 -179,18 -249,-24 -70,-41 -117,-110 -143,-205 -26,-96 -19,-179 21,-250 40,-70 108,-118 204,-144 96,-26 179,-18 249,23 70,41 117,110 143,206zm-164 206c10,-22 16,-47 16,-73 1,-27 -3,-57 -12,-91 -10,-35 -22,-65 -37,-88 -15,-23 -32,-40 -49,-52 -18,-13 -37,-20 -57,-23 -20,-2 -39,-1 -58,4 -20,6 -37,14 -53,26 -15,11 -28,27 -38,47 -10,19 -15,42 -16,71 -2,29 2,60 12,95 9,36 21,65 36,88 15,23 31,40 49,52 18,13 36,20 56,23 20,3 40,1 60,-4 20,-5 38,-14 54,-27 16,-12 28,-28 37,-48zm1007 -327l-388 224 -310 -536 388 -224 60 104 -249 144 53 92 232 -134 60 104 -232 134 77 132 249 -144 60 104zm430 -386l-331 299 -414 -460 119 -108 333 371 213 -191 80 89zm184 -923l-182 217 88 74 169 -201 92 77 -169 201 203 170 -103 122 -475 -398 285 -339 92 77zm583 -336c64,42 99,94 107,156 8,61 -14,129 -64,204 -51,75 -106,121 -166,136 -60,16 -121,3 -184,-40l-328 -221 90 -133 320 216c35,24 67,35 94,31 28,-3 53,-21 76,-55 22,-33 30,-63 23,-89 -6,-27 -28,-53 -65,-78l-320 -215 90 -133 327 221zm69 -666l-94 169 437 242 -78 140 -436 -242 -94 169 -105 -58 265 -478 105 58zm514 -425c69,32 112,78 129,138 18,59 7,130 -31,212 -38,82 -86,135 -142,160 -57,25 -120,21 -189,-11l-358 -167 68 -145 350 163c39,18 71,23 98,16 27,-7 49,-29 66,-66 17,-36 20,-67 9,-92 -10,-26 -36,-48 -76,-67l-350 -163 68 -145 358 167zm-19 -511c-14,-5 -28,-6 -40,-4 -13,2 -24,9 -35,21 -8,9 -15,20 -21,33 -6,13 -12,28 -18,46l-20 53 156 57 16 -46c9,-23 15,-44 18,-60 4,-17 3,-32 -1,-46 -4,-13 -10,-24 -18,-32 -8,-9 -20,-16 -37,-22zm490 -88l-67 184 -271 80 -25 68 214 78 -55 150 -582 -211 92 -252c12,-34 25,-63 38,-86 13,-24 30,-44 51,-60 21,-18 44,-29 69,-34 26,-6 54,-3 85,9 43,15 74,38 94,68 20,29 32,66 37,110l320 -104zm-100 -727c95,27 162,76 202,146 41,71 47,154 20,250 -28,96 -77,163 -149,201 -71,39 -154,44 -249,17 -96,-27 -164,-76 -203,-147 -40,-70 -47,-153 -19,-249 27,-95 76,-162 148,-201 71,-39 154,-44 250,-17zm92 247c-14,-20 -32,-38 -54,-52 -23,-14 -51,-26 -84,-36 -36,-10 -68,-14 -95,-13 -27,1 -51,6 -70,15 -20,9 -36,21 -48,37 -13,15 -22,33 -27,52 -6,19 -7,39 -5,58 2,19 9,38 20,57 12,18 29,35 53,51 24,15 53,28 88,38 35,10 66,15 94,14 27,-1 50,-6 70,-15 19,-8 35,-21 48,-36 13,-16 22,-34 27,-54 6,-19 8,-39 5,-59 -2,-20 -10,-39 -22,-57z"></path> <path class="fil4" d="M6547 8311c-42,42 42,-42 0,0zm-1041 6233c42,-42 -43,42 0,0zm-75 -90l-16 23 -24 -31 16 -16 24 24zm1661 397c-47,-67 -104,35 -251,80 -108,33 -238,62 -365,62 -408,0 -743,-257 -953,-467 -168,-167 -186,-161 -301,-361 -51,-90 -200,-402 -261,-447 59,250 372,690 539,856 236,236 486,442 952,442l119 0c259,0 363,-123 521,-165zm-1279 -236c42,-42 -42,42 0,0zm-176 -9177c-24,8 -108,58 -128,52 -29,-8 -85,-158 -75,-191l17 -59c36,-127 123,-232 249,-196l15 5c126,35 181,177 132,302 -17,45 -78,107 -110,142 -42,47 -80,61 -153,42 -7,6 -2,5 -27,1 12,-10 14,-14 22,-15 30,-28 70,-13 90,-82l-8 -6 -21 27 -3 -22zm11 75c-31,-6 -26,-3 -44,12 35,6 11,6 44,-12zm33 -144l2 81c24,1 36,-12 46,-31l-48 -50zm-34 65l6 -24 10 -37 -39 -3 14 69 9 -5zm-23 6l-9 -72 -66 70 14 8c-69,-18 -55,-97 -75,-139 -12,60 20,123 52,160l23 -11 61 -16zm-62 -113c-17,-2 -46,-5 -50,11 -6,20 2,31 10,42l40 -53zm81 32c19,-50 48,-77 2,-121l-24 3 -11 36c-5,17 4,33 21,38l23 7 -5 14 -56 -34 16 45 34 12zm-81 -112c3,-12 -27,-34 -37,-43l-19 68c22,-5 49,-1 56,-25zm146 25c-10,-20 -23,-63 -52,-71 -11,-3 -71,20 -71,20l4 11c8,-6 20,-20 30,-17 37,11 31,32 66,27l15 35 8 -5zm-201 -125c31,15 16,16 44,24 44,13 94,6 109,-41 -39,-10 -129,-19 -125,13l-28 4zm191 -95c-38,-11 -81,-3 -108,10l64 -1 0 35 75 19 20 -4 7 -12c52,52 110,102 75,224l8 3c34,-122 -22,-241 -141,-274zm-28 148l66 -71 -70 -22 4 93zm42 1c4,-14 7,-13 14,-20l-12 -12c-8,8 -23,20 -26,33 -4,13 8,16 18,21l6 -22zm81 31c-7,-31 2,-39 -25,-56l-46 62 1 8 70 -14zm-2 64l-76 10 56 57 20 -67zm-129 -279l-91 19 -122 44 -88 66 -75 113 -32 78 -56 91 -31 75 -32 47 -18 31 0 35 2 10 -49 108 -28 -71c-20,125 -81,197 -81,334 0,43 54,60 95,71 -2,95 -89,301 -122,398 -37,111 -59,279 -162,334l0 94 -38 -74 -58 215 42 -51 6 99 -15 -20 -67 53 18 18 34 -55 7 98 -70 -28 -50 288 86 -262c10,175 -98,565 -129,760 -41,256 -61,500 -107,768 -79,455 -109,1127 -109,1638l0 638c0,636 7,2432 544,2432l48 0c81,0 91,-18 165,-24 -43,38 -84,71 -165,71l-24 0c-493,0 -454,-666 -530,-1100 -72,-410 -85,-1083 -85,-1544l0 -189c0,-591 53,-1120 94,-1654 20,-269 55,-528 95,-778 19,-123 38,-234 61,-364 10,-57 86,-340 81,-345l-20 -27c-166,342 -335,2261 -335,2861l0 873c0,508 70,943 95,1393 23,429 108,935 544,945l58 170 -37 -169c59,40 223,406 279,502 102,177 195,286 333,424 225,224 630,431 1050,374 398,-54 716,-210 939,-433 136,-137 224,-258 327,-429 62,-100 212,-443 270,-486l-91 237 25 11 128 -289 -276 -5 -3 -29 -23 23 73 32c-31,136 -192,427 -266,555 -65,112 -354,383 -324,456 -148,13 -389,331 -994,331 -310,0 -698,-312 -843,-505 -258,-343 -276,-484 -459,-865 108,-72 165,-197 165,-377l0 -48 -26 -212c453,-10 212,-742 166,-1131 -53,-458 -116,-921 -116,-1443l0 -732 95 0c173,0 253,71 426,71l71 0c181,0 592,-219 592,-354 0,-55 -40,-95 -95,-95 -83,0 -263,253 -592,260l0 -47c80,-21 166,-84 166,-189 0,-29 -49,-71 -95,-71 -114,0 -212,213 -473,213l-95 0c0,-345 45,-551 166,-779l308 -10 -20 -42 -335 30 0 -26 142 0 -6 -118 313 -48 0 96c135,-12 185,-142 71,-142 -97,0 -112,44 -236,47l-35 -35 -57 38 -217 21 -57 70 -30 9 17 27 -77 141 -22 -15 -23 23 30 75c-82,-35 -120,235 -122,401 -2,132 9,184 -20,289 -34,127 -46,65 -74,184l-43 -14c3,26 -68,605 -74,770 -10,258 -34,529 0,824 33,280 136,1414 212,1489l20 28 46 -56 79 476c8,66 -60,273 -74,332l-100 -33 70 -68 -49 -96c1,-738 -253,-1517 -253,-2424l0 -449 69 -638 -35 75c-10,-428 7,-1028 66,-1415 58,-375 155,-951 184,-1304l-85 -106 108 14 -74 -93 192 -556 25 9c0,265 144,968 355,968 50,0 31,-8 95,-23 0,-189 -45,-321 -74,-494 -11,-68 -20,-166 -35,-248 -7,-40 -16,-87 -10,-131 7,-52 2,-25 16,-57 3,-8 17,-11 20,-27 1,-7 16,-8 12,-12l-20 -27c-24,42 -57,86 -51,146l28 330 -98 -48 -91 101c68,147 53,367 279,372 -14,53 -5,71 -71,71 -237,0 -255,-693 -331,-850 72,-136 197,-142 402,-142l49 -94c-69,-16 -42,-24 -96,-24 -50,0 -31,9 -95,24l0 71 -96 9 -67 -36 -120 75c36,-137 122,-90 236,-166l143 -16 93 40 85 -149 -9 -21 -79 119c-49,-9 -51,-21 -115,-21l-23 0c-104,0 -288,111 -379,118 10,-118 45,-173 61,-269 32,-190 101,-147 128,-250l8 22 448 -146 84 38 -8 42 9 24 15 -18 65 55 -53 7 0 47c58,-39 169,-213 206,-291 94,-201 46,-192 78,-347 -105,-70 -164,-165 -355,-165l-118 0c-344,0 -645,476 -710,756 112,-130 216,-512 417,-623 185,-102 670,-191 743,79 -212,-141 -279,-100 -545,-94l0 14 -9 -2zm1591 9508l32 -24 24 16 -32 31 -24 -23zm-1540 1l-14 22 -117 -127 13 -13 118 118zm1639 -76c-42,-42 42,42 0,0zm123 -137l23 15 -80 69 -14 -13 71 -71zm-1926 46l-16 24 -23 -32 15 -15 24 23zm-91 -98c42,-42 -42,42 0,0zm2107 -47c-42,-42 42,42 0,0zm-2178 -48c42,-42 -42,42 0,0zm2367 -259c-42,-42 42,42 0,0zm-3053 -449c-42,42 42,-42 0,0zm-137 -99l14 -23 70 80 -13 13 -71 -70zm539 5c42,42 -42,-42 0,0zm-47 -166c42,42 -42,-42 0,0zm284 -472c42,42 -42,-42 0,0zm43 -58c-58,20 4,-37 28,-13 6,6 -22,11 -24,12 0,0 -4,1 -4,1zm-209 -36l71 0 -71 70 0 -70zm-120 -141l49 -1 -7 75 -42 -74zm-259 802c-235,-63 -307,-1072 -307,-1417l23 0 -30 6 314 1411zm214 -3447l23 -1c0,533 20,1003 73,1486 24,218 68,462 94,686 18,164 175,562 -49,567l-218 -1933 29 -3 -9 -166 57 -636zm-279 2166c-57,-386 -100,-871 -100,-1293l23 0c0,412 48,850 98,1225 51,392 257,744 257,1065l0 166 -47 0c-4,-181 -190,-879 -231,-1163zm314 -2592l102 -98 19 170 -81 74 -51 -30 19 -25 50 31 -13 -46 -6 -32 -23 31 9 -55 -25 -20 0 0zm414 71l122 -62 -147 7 -23 -110 -117 0 0 -24c383,0 302,-213 591,-189l0 71 -115 -53 -40 193 -156 89 334 61c5,-6 132,-38 153,-44 43,-13 33,-7 69,-26 6,-3 23,-8 27,-20 2,-6 8,-15 12,-11l24 24c-285,150 -412,94 -734,94zm829 -141c0,93 0,-94 0,0zm-237 -24c-42,-42 42,42 0,0zm-280 -20l-32 -31 24 -24 24 32 -16 23zm422 -74c-42,-42 42,42 0,0zm189 -71c43,-42 -42,42 0,0zm-1017 -732c42,42 -43,-42 0,0zm568 -166c42,42 -42,-42 0,0zm-1191 -1275l0 -94 0 94zm837 -265l-21 33 -94 -54 115 21zm-380 -679c42,42 -42,-42 0,0zm-190 -213c0,-93 0,94 0,0zm37 -66c20,57 -37,-4 -13,-28 6,-6 11,22 12,24 0,0 1,4 1,4zm967 -193l-6 13 -49 -17 49 -64 24 17 -18 51zm85 -95c42,42 -42,-42 0,0zm-189 24c-42,42 42,-42 0,0zm213 -71c42,42 -42,-42 0,0zm1321 9156l-23 -14 80 -70 14 14 -71 70zm170 -183c42,41 -42,-42 0,0zm213 -284c43,42 -42,-42 0,0zm-568 638c403,-269 553,-585 781,-1016 -49,18 -320,481 -382,563 -165,220 -301,286 -493,453l94 0zm426 -2220c0,-26 275,-1048 284,-1062 0,198 -68,1133 -213,1133 -54,0 -71,-16 -71,-71zm24 661c94,-31 13,11 25,-139 3,-41 32,-137 41,-172 28,-110 54,-225 74,-328 43,-215 100,-484 120,-707 43,-477 119,-1002 119,-1511 0,-129 -24,-319 -46,-427 -10,-52 -106,-342 -120,-328l-28 19c59,67 99,148 99,264l0 24 26 4 -251 1556 117 -454c13,266 19,505 -32,761 -35,175 -191,659 -191,777l0 24c0,100 85,83 142,71 -71,301 -151,79 -190,118l-27 19 167 59c0,122 -45,159 -45,299l0 71zm507 268l-9 -79 77 38 1 -61 94 -62 20 10 -72 55 17 24 114 -158 -19 -15 24 -24 23 32c53,-213 167,-387 215,-691 41,-259 59,-522 106,-791 75,-423 86,-1234 86,-1710 0,-598 -60,-1281 -160,-1776 -56,-278 -107,-538 -172,-797 -48,-192 -175,-581 -189,-756l-12 -12c-206,-12 -148,-71 -191,-257 -29,-123 -54,-228 -81,-345l260 -143c0,-395 -28,-1318 -377,-1318 -327,-29 -611,95 -735,304l19 28c146,-271 626,-390 863,-129 151,167 183,792 183,1117l-47 0 -30 -354 6 -95 -95 71 24 -11 -109 -243 -487 -209 -166 49 -23 -7 40 -95 81 -30 -25 -43c96,-12 116,-60 253,-83 138,-23 136,51 223,11l54 89 56 -51 -34 61 15 23 55 -45 23 13 -31 74 72 52c-14,-208 -216,-379 -441,-354 -277,31 -356,151 -503,232 15,184 108,108 118,118l28 20 -76 18c182,130 221,654 356,789l28 19 -19 19 95 94 18 -18 24 23 -10 22 121 40c10,72 53,237 74,320 24,95 96,260 24,283l46 27c-13,19 -46,54 -46,68 0,107 118,455 140,592 32,206 69,380 106,602 66,391 109,873 109,1309l0 236 -69 1157 -25 0 -41 -1369 17 -284 -98 -1018 -67 28 12 -53 -9 -24 -21 16 -88 -122 20 -14 65 98 24 -17 -146 -193 -28 20 81 70 -76 3 -19 121 -81 -67 -208 -30 -27 95 -306 5c-23,-24 12,-51 -70,-51 -139,0 -331,356 -331,566l-24 0c0,-386 264,-685 639,-685 126,0 221,72 308,95 -72,-98 -224,-129 -379,-142l57 -62c-102,-53 -243,6 -338,41 -42,16 -106,45 -145,68 -36,22 -34,24 -67,51 -7,6 -21,18 -26,22 -5,4 -17,30 -25,22l-28 -20c157,-106 345,-240 596,-240l142 0c82,0 92,18 166,24 -281,-195 -819,69 -947,260l125 132c-165,257 -76,634 -149,718 174,361 163,637 734,637l12 -47 105 29 1 42 -260 27c-78,6 -307,-97 -308,-98l-27 -20 31 -23 -147 -74 21 -29 30 50 25 -18c-190,-128 -179,-370 -240,-500 -31,62 -24,-20 -24,71 0,260 303,661 615,661l95 0c145,0 181,-47 308,-47 29,0 62,15 87,31 17,11 23,20 36,34 5,6 11,37 19,29l27 -20 -72 -54 66 -128 -25 -14 23 -24 91 85 21 -34 -262 -138 -11 -27c133,-36 211,-250 284,-354l-6 567c71,166 53,96 53,283l0 47 56 448 -9 142 -58 1275 11 95 -6 118 6 23c0,86 6,23 -24,48l48 11c-4,19 -95,690 -120,813 -18,91 -89,323 -83,397 15,190 124,141 203,290l95 -1 33 56zm-199 -197c-41,-27 -95,-51 -95,-118l0 -24c0,-172 71,-252 71,-425 163,-109 403,-1149 403,-1463l23 0c0,343 -81,769 -140,1064 -75,374 -188,650 -262,966zm-474 -4156c212,-4 239,-248 332,-354 -17,204 -151,336 -284,425l-65 -53 17 -18 -94 0 163 145 -17 93 67 21 -20 29c-157,-101 -406,-110 -406,-406l68 14c44,-101 3,44 3,-84l0 -118 161 38 118 247 -43 21zm-113 -5l23 -14 -80 -70 59 -168 -96 158 94 94zm-76 194c-94,-7 -77,-9 -118,-70 94,7 77,9 118,70zm-95 -520l-74 236c-71,-19 -96,-68 -110,-131l184 -105zm382 -24c51,6 139,23 139,72 0,63 -34,91 -65,116l-74 -188zm-263 25c-14,-162 -76,-264 94,-354l70 28 1 113c0,56 -39,95 -94,95l-71 0 0 47 194 -57 -84 122 -110 6zm-379 -307l213 94 -213 118 0 -212zm710 47c0,-39 108,-76 142,-94l0 212c-59,-31 -142,-41 -142,-118zm-450 -47c47,-53 120,-165 213,-165 35,0 190,118 190,118l-20 27c-18,-25 -42,-74 -75,-74 -117,0 -117,67 -213,23l-75 91 -20 -20zm-213 -189c45,-84 26,-117 119,-142l83 218 -8 22 -194 -98zm237 24c31,-63 24,19 24,-71 0,-58 -82,5 23,-71 16,30 48,78 48,118 0,21 -27,47 -48,47 -3,0 -47,-23 -47,-23zm669 -34c-103,18 -59,34 -148,34 -140,0 -281,-61 -284,-213l377 78 -21 64 76 37zm-519 18l-136 -263 223 -5 -87 268zm442 -2227c-225,0 -399,-585 -450,-803 116,24 52,-15 160,3 48,8 96,48 153,62 207,53 172,114 255,147l0 95c0,63 -34,70 -71,94l0 -27 -71 0 51 -37 -97 -3 -8 -31 -34 55 -3 -30 -73 -10 -39 -65 -22 54 -77 -56c96,289 182,556 610,457 -39,53 -100,95 -190,95l-94 0zm-284 -567c0,93 0,-93 0,0zm-947 2786c-42,-42 42,42 0,0zm-24 -118c42,-42 -42,42 0,0zm-71 -47c42,-42 -42,42 0,0zm-809 98c64,-56 152,-75 265,-75l47 0c302,0 467,213 544,213 67,0 92,-54 119,-95 -98,-184 -683,-459 -971,-259l213 -29 119 5c194,0 531,145 568,283 -153,-101 -248,-176 -473,-214 -103,-18 -129,-37 -223,40 -36,29 -235,96 -231,108l23 23z"></path> </g> </g> </svg> 